<svg width="32" height="32" viewBox="0 0 32 32" fill="none" xmlns="http://www.w3.org/2000/svg">
<path fill-rule="evenodd" clip-rule="evenodd" d="M22.2511 6.47775C24.3117 5.61917 26.3789 7.68639 25.5203 9.74698L19.5968 23.9634C18.4384 26.7437 14.3636 26.2738 13.8684 23.3028L13.1294 18.8687L8.6953 18.1297C5.72431 17.6345 5.25437 13.5597 8.03465 12.4013L22.2511 6.47775ZM23.6742 8.97775C23.8459 8.56563 23.4324 8.15219 23.0203 8.3239L8.80388 14.2474C7.87712 14.6336 8.03377 15.9918 9.02409 16.1569L13.4582 16.8959C14.3011 17.0364 14.9617 17.697 15.1022 18.5399L15.8412 22.974C16.0062 23.9643 17.3645 24.121 17.7506 23.1942L23.6742 8.97775Z" fill="#B1B5C4"/>
</svg>
